<?xml version="1.0" encoding="UTF-8"?>
<svg version="1.1" xmlns="http://www.w3.org/2000/svg" width="48" height="46">
<path d="M0 0 C2.0625 0.4375 2.0625 0.4375 4 1 C2.53485143 10.60413994 -0.02376541 19.84587688 -2.625 29.1875 C-3.04991661 30.72709288 -3.47439894 32.26680568 -3.8984375 33.80664062 C-4.92729683 37.53916008 -5.96199645 41.27001369 -7 45 C-8.98 45.495 -8.98 45.495 -11 46 C-11.99417471 42.88794946 -11.97248337 40.93776964 -11.11962891 37.7980957 C-10.9025528 36.98077469 -10.68547668 36.16345367 -10.46182251 35.32136536 C-10.21918671 34.4483226 -9.9765509 33.57527985 -9.7265625 32.67578125 C-9.48336273 31.77377487 -9.24016296 30.87176849 -8.98959351 29.94242859 C-8.47447642 28.03908302 -7.95471882 26.13698813 -7.43066406 24.23608398 C-6.62587159 21.31566283 -5.83517346 18.39170854 -5.046875 15.46679688 C-4.54508823 13.61956943 -4.04251126 11.77255642 -3.5390625 9.92578125 C-3.30047516 9.0466658 -3.06188782 8.16755035 -2.81607056 7.26179504 C-1.11698609 1.11698609 -1.11698609 1.11698609 0 0 Z " fill="#48506A" transform="translate(28,0)"/>
<path d="M0 0 C-0.33784485 3.07227658 -0.65641943 4.63716707 -2.8125 6.9140625 C-3.534375 7.47867187 -4.25625 8.04328125 -5 8.625 C-8.3250419 11.18867204 -8.3250419 11.18867204 -10 15 C-8.9171875 16.01320313 -8.9171875 16.01320313 -7.8125 17.046875 C-6.884375 17.93890625 -5.95625 18.8309375 -5 19.75 C-4.071875 20.63171875 -3.14375 21.5134375 -2.1875 22.421875 C0 25 0 25 0 29 C-4.06809929 28.47462592 -6.17603456 27.38599539 -9.1875 24.625 C-9.86167969 24.01914062 -10.53585938 23.41328125 -11.23046875 22.7890625 C-13.82186482 20.16906382 -14.93533848 18.42029987 -15.5 14.75 C-14.67973455 8.5980091 -10.766816 5.64061486 -6.375 1.5625 C-4 0 -4 0 0 0 Z " fill="#48506A" transform="translate(15,0)"/>
<path d="M0 0 C4.39456104 0.50646537 6.53400161 1.95352834 9.75 4.9375 C10.52859375 5.64777344 11.3071875 6.35804687 12.109375 7.08984375 C14.62845052 9.63494278 14.95716386 10.64317494 15.390625 14.25390625 C14.90475972 18.91335427 13.05087145 20.90120222 9.75 23.9375 C9.25886719 24.43056641 8.76773438 24.92363281 8.26171875 25.43164062 C5.22251965 28.35332403 4.37875059 29 0 29 C0.45738073 24.31808451 2.19110394 22.36895826 5.5625 19.1875 C6.38878906 18.39730469 7.21507812 17.60710938 8.06640625 16.79296875 C8.70449219 16.20128906 9.34257813 15.60960937 10 15 C7.66770668 10.7588143 5.24764346 8.38384946 1.42578125 5.52734375 C0 4 0 4 0 0 Z " fill="#48506A" transform="translate(33,17)"/>
</svg>
